<?xml version="1.0" encoding="UTF-8"?>
<svg xmlns="http://www.w3.org/2000/svg" viewBox="0 0 1200 630">
  <defs>
    <linearGradient id="bg" x1="0" y1="0" x2="1" y2="1">
      <stop offset="0" stop-color="#f4a261"/>
      <stop offset="1" stop-color="#e76f51"/>
    </linearGradient>
  </defs>
  <rect x="0" y="0" width="1200" height="630" fill="url(#bg)"/>

  <ellipse cx="170" cy="220" rx="32" ry="42" fill="#ffffff" opacity="0.15"/>
  <ellipse cx="225" cy="160" rx="32" ry="42" fill="#ffffff" opacity="0.15"/>
  <ellipse cx="295" cy="160" rx="32" ry="42" fill="#ffffff" opacity="0.15"/>
  <ellipse cx="350" cy="220" rx="32" ry="42" fill="#ffffff" opacity="0.15"/>
  <path d="M195 295 C 195 250, 325 250, 325 295 C 365 350, 345 430, 260 430 C 175 430, 155 350, 195 295 Z" fill="#ffffff" opacity="0.15"/>

  <ellipse cx="980" cy="450" rx="22" ry="30" fill="#ffffff" opacity="0.10"/>
  <ellipse cx="1018" cy="410" rx="22" ry="30" fill="#ffffff" opacity="0.10"/>
  <ellipse cx="1062" cy="410" rx="22" ry="30" fill="#ffffff" opacity="0.10"/>
  <ellipse cx="1100" cy="450" rx="22" ry="30" fill="#ffffff" opacity="0.10"/>

  <ellipse cx="510" cy="240" rx="24" ry="32" fill="#ffffff"/>
  <ellipse cx="555" cy="200" rx="24" ry="32" fill="#ffffff"/>
  <ellipse cx="610" cy="200" rx="24" ry="32" fill="#ffffff"/>
  <ellipse cx="655" cy="240" rx="24" ry="32" fill="#ffffff"/>
  <path d="M530 290 C 530 250, 635 250, 635 290 C 670 330, 645 395, 583 395 C 521 395, 496 330, 530 290 Z" fill="#ffffff"/>
  <text x="583" y="475"
        text-anchor="middle"
        font-family="-apple-system, BlinkMacSystemFont, 'Helvetica Neue', Arial, sans-serif"
        font-size="74" font-weight="800" fill="#ffffff" letter-spacing="-2">K9</text>
  <text x="583" y="525"
        text-anchor="middle"
        font-family="-apple-system, BlinkMacSystemFont, 'Helvetica Neue', Arial, sans-serif"
        font-size="22" font-weight="500" fill="#ffffff" opacity="0.9" letter-spacing="0.3">L'app pour les compagnons de chiens</text>
  <text x="583" y="565"
        text-anchor="middle"
        font-family="-apple-system, BlinkMacSystemFont, 'Helvetica Neue', Arial, sans-serif"
        font-size="20" font-weight="500" fill="#ffffff" opacity="0.75" letter-spacing="0.3">k9-one.vercel.app</text>
</svg>
